<?xml version="1.0" standalone="no"?>
<!DOCTYPE svg PUBLIC "-//W3C//DTD SVG 20010904//EN"
 "http://www.w3.org/TR/2001/REC-SVG-20010904/DTD/svg10.dtd">
<svg version="1.0" xmlns="http://www.w3.org/2000/svg"
 width="364.000000pt" height="199.000000pt" viewBox="0 0 364.000000 199.000000"
 preserveAspectRatio="xMidYMid meet">

<g transform="translate(0.000000,199.000000) scale(0.100000,-0.100000)"
fill="#000000" stroke="none">
<path d="M1751 1661 c-28 -28 -27 -75 1 -95 13 -10 44 -16 75 -16 68 0 191
-40 272 -87 168 -100 281 -302 281 -503 0 -156 -61 -303 -174 -415 -64 -63
-152 -121 -213 -140 -23 -6 -23 -5 -23 87 0 63 -5 102 -15 122 -21 40 -20 43
26 50 78 13 136 53 172 121 29 55 37 236 13 283 -10 19 -16 56 -16 96 0 35 -3
71 -6 80 -10 27 -49 18 -112 -24 -57 -39 -62 -40 -104 -30 -57 13 -165 13
-227 -1 -50 -10 -51 -10 -107 30 -32 23 -65 41 -75 41 -21 0 -32 -41 -28 -108
1 -28 -5 -63 -15 -87 -26 -57 -19 -223 11 -281 30 -57 81 -98 139 -113 78 -21
77 -20 67 -34 -6 -6 -13 -25 -17 -40 -15 -65 -116 -56 -163 14 -26 40 -67 69
-98 69 -23 0 -18 -13 15 -45 16 -15 38 -47 49 -70 30 -64 62 -85 132 -85 l59
0 0 -50 c0 -27 -2 -50 -3 -50 -2 0 -28 8 -58 19 -101 34 -163 73 -236 146 -84
84 -144 197 -163 305 -17 96 -29 114 -72 118 -30 3 -40 -1 -53 -21 -13 -21
-14 -35 -5 -92 25 -158 92 -288 204 -401 219 -219 532 -272 814 -139 420 198
538 736 242 1102 -116 143 -298 238 -497 258 -64 6 -73 5 -92 -14z"/>
<path d="M1435 1583 c-143 -76 -310 -282 -291 -357 8 -32 46 -49 79 -37 12 5
35 32 51 60 37 69 124 161 194 207 87 57 101 85 62 124 -24 24 -54 25 -95 3z"/>
</g>
</svg>
