<?xml version="1.0" standalone="no"?>
<!DOCTYPE svg PUBLIC "-//W3C//DTD SVG 20010904//EN"
 "http://www.w3.org/TR/2001/REC-SVG-20010904/DTD/svg10.dtd">
<svg version="1.0" xmlns="http://www.w3.org/2000/svg"
 width="271.000000pt" height="203.000000pt" viewBox="0 0 271.000000 203.000000"
 preserveAspectRatio="xMidYMid meet">

<g transform="translate(0.000000,203.000000) scale(0.100000,-0.100000)"
fill="#000000" stroke="none">
<path d="M1330 1371 c0 -6 5 -13 10 -16 6 -3 10 1 10 9 0 9 -4 16 -10 16 -5 0
-10 -4 -10 -9z"/>
<path d="M524 1355 c-4 -9 -2 -21 4 -27 15 -15 44 -1 40 19 -4 23 -36 29 -44
8z"/>
<path d="M1294 1318 l-19 -23 23 19 c21 18 27 26 19 26 -2 0 -12 -10 -23 -22z"/>
<path d="M1309 1303 c-13 -16 -12 -17 4 -4 9 7 17 15 17 17 0 8 -8 3 -21 -13z"/>
<path d="M914 1302 c-22 -15 -24 -45 -4 -89 34 -78 25 -101 -34 -85 -48 14
-76 -6 -73 -53 2 -18 5 -36 7 -38 3 -2 26 -7 51 -10 44 -6 46 -5 78 36 31 40
32 44 25 110 -6 57 -4 71 11 87 10 11 15 26 12 35 -7 16 -53 21 -73 7z"/>
<path d="M1002 1270 c-31 -41 -27 -67 14 -107 41 -38 55 -37 29 3 -9 15 -13
29 -8 33 4 3 14 18 20 33 8 18 18 26 27 22 19 -7 30 14 16 31 -22 26 -74 18
-98 -15z"/>
<path d="M1234 1248 l-29 -33 33 29 c17 17 32 31 32 33 0 8 -8 1 -36 -29z"/>
<path d="M1269 1253 l-24 -28 28 24 c25 23 32 31 24 31 -2 0 -14 -12 -28 -27z"/>
<path d="M1100 1236 c0 -2 7 -9 15 -16 9 -7 15 -8 15 -2 0 5 -7 12 -15 16 -8
3 -15 4 -15 2z"/>
<path d="M1155 1160 c-38 -39 -65 -51 -65 -29 0 6 -7 4 -15 -5 -25 -25 -18
-88 18 -160 l34 -66 -137 0 c-83 0 -140 4 -147 11 -7 7 -7 -1 1 -26 8 -28 12
-32 14 -16 3 20 9 20 150 18 133 -2 147 -4 150 -20 7 -38 -3 -43 -77 -37 -48
4 -76 1 -88 -7 -16 -12 -16 -13 0 -13 14 0 37 -35 37 -56 0 -2 -34 -4 -75 -4
-71 0 -75 -1 -74 -22 1 -17 3 -18 6 -6 4 15 20 17 139 17 l134 0 0 -29 0 -30
-135 2 c-129 3 -135 2 -135 -17 0 -13 3 -16 8 -8 6 9 75 13 267 15 240 3 260
4 261 21 1 12 1 13 -3 2 -3 -12 -21 -15 -75 -15 -60 0 -69 2 -64 16 3 9 6 22
6 30 0 19 136 20 143 2 3 -8 6 -6 6 5 1 14 -8 17 -45 17 -43 0 -45 1 -33 18
12 15 12 16 -1 6 -15 -11 -60 -25 -60 -19 0 2 7 31 16 64 8 34 12 66 8 73 -4
6 5 21 22 35 l29 24 -27 -12 c-16 -7 -28 -16 -28 -22 0 -5 -16 -7 -37 -3 -28
4 -33 3 -18 -4 14 -6 -2 -8 -55 -7 l-75 2 -32 65 c-43 85 -44 120 -2 57 17
-26 34 -45 39 -42 4 2 16 -5 26 -16 10 -12 28 -25 39 -31 11 -6 3 6 -18 25
-21 20 -36 41 -32 47 4 7 22 -3 47 -25 22 -20 42 -35 44 -32 6 6 -41 88 -66
114 -26 28 -25 31 7 67 l28 31 -35 -31 c-55 -49 -70 -30 -19 22 24 24 41 44
38 44 -3 0 -23 -18 -44 -40z m-21 -81 c34 -29 35 -31 20 -55 -9 -13 -20 -21
-25 -18 -15 9 -47 78 -42 92 6 17 8 16 47 -19z m71 -59 c21 -41 19 -47 -9 -21
-14 13 -22 29 -19 37 7 20 10 18 28 -16z m105 -160 c0 -30 0 -30 -60 -30 -48
0 -61 4 -70 19 -19 36 -12 41 60 41 l70 0 0 -30z m-75 -93 l30 -16 -47 -1 -48
0 0 38 c1 37 1 37 18 16 10 -12 31 -28 47 -37z m-75 13 c0 -30 0 -30 -59 -30
-44 0 -60 4 -65 16 -15 39 -8 44 59 44 l65 0 0 -30z m140 21 c0 -6 -5 -13 -10
-16 -6 -4 -8 -10 -5 -15 9 -14 -58 8 -74 25 -14 13 -10 15 37 15 29 0 52 -4
52 -9z m-24 -83 c-3 -13 -6 -26 -6 -30 0 -5 -22 -8 -50 -8 -49 0 -50 1 -50 30
0 30 0 30 56 30 54 0 56 -1 50 -22z"/>
<path d="M524 1115 c-4 -9 -2 -21 4 -27 15 -15 44 -1 40 19 -4 23 -36 29 -44
8z"/>
<path d="M1810 1000 c-19 -28 -41 -48 -47 -45 -7 2 -13 0 -13 -5 0 -6 7 -10
15 -10 8 0 15 -4 15 -10 0 -5 -7 -10 -15 -10 -9 0 -15 -9 -14 -22 0 -21 1 -21
8 -4 7 18 8 18 14 3 3 -9 14 -16 24 -16 16 1 16 2 1 6 -25 6 -11 70 26 116 27
33 31 36 38 20 7 -17 8 -17 5 1 -4 34 -21 26 -57 -24z"/>
<path d="M1415 988 l-40 -43 45 40 c25 22 47 41 49 43 2 1 0 2 -5 2 -6 0 -28
-19 -49 -42z"/>
<path d="M1498 1023 c7 -3 16 -2 19 1 4 3 -2 6 -13 5 -11 0 -14 -3 -6 -6z"/>
<path d="M1540 1010 c8 -5 20 -10 25 -10 6 0 3 5 -5 10 -8 5 -19 10 -25 10 -5
0 -3 -5 5 -10z"/>
<path d="M1852 980 c0 -14 2 -19 5 -12 2 6 2 18 0 25 -3 6 -5 1 -5 -13z"/>
<path d="M1688 973 c12 -2 32 -2 45 0 12 2 2 4 -23 4 -25 0 -35 -2 -22 -4z"/>
<path d="M1832 913 c-6 -20 -7 -32 -2 -27 10 10 25 64 18 64 -3 0 -10 -16 -16
-37z"/>
<path d="M565 931 c-7 -12 12 -24 25 -16 11 7 4 25 -10 25 -5 0 -11 -4 -15 -9z"/>
<path d="M1454 873 c-15 -21 -20 -31 -10 -23 18 14 18 13 13 -20 -5 -26 -2
-22 9 13 14 43 17 47 32 35 16 -12 16 -11 2 7 -8 11 -15 21 -16 23 -1 1 -14
-14 -30 -35z"/>
<path d="M1587 894 c2 -7 11 -10 19 -7 19 7 18 10 -5 16 -13 3 -18 1 -14 -9z"/>
<path d="M430 870 c-8 -14 -8 -26 0 -40 10 -19 19 -20 153 -18 140 3 142 3
145 26 7 46 -10 52 -154 52 -123 0 -134 -2 -144 -20z"/>
<path d="M1648 883 c7 -3 16 -2 19 1 4 3 -2 6 -13 5 -11 0 -14 -3 -6 -6z"/>
<path d="M1727 859 c7 -7 15 -10 18 -7 3 3 -2 9 -12 12 -14 6 -15 5 -6 -5z"/>
<path d="M1616 838 c4 -7 14 -21 23 -31 14 -17 14 -20 -1 -31 -10 -7 -15 -16
-11 -19 3 -4 12 2 20 13 12 17 11 23 -8 50 -23 30 -36 41 -23 18z"/>
<path d="M862 820 c0 -14 2 -19 5 -12 2 6 2 18 0 25 -3 6 -5 1 -5 -13z"/>
<path d="M1415 822 c-5 -4 -17 -16 -25 -27 -11 -15 -7 -14 13 4 24 22 32 31
25 31 -2 0 -7 -4 -13 -8z"/>
<path d="M1546 787 c3 -10 9 -15 12 -12 3 3 0 11 -7 18 -10 9 -11 8 -5 -6z"/>
<path d="M871 774 c0 -11 3 -14 6 -6 3 7 2 16 -1 19 -3 4 -6 -2 -5 -13z"/>
<path d="M1441 774 c0 -11 3 -14 6 -6 3 7 2 16 -1 19 -3 4 -6 -2 -5 -13z"/>
<path d="M1590 755 c-10 -13 -15 -13 -21 -3 -7 10 -9 9 -9 -4 0 -21 11 -23 29
-5 11 10 12 8 6 -10 -5 -18 -3 -22 9 -17 17 7 18 10 7 37 -6 17 -8 18 -21 2z"/>
<path d="M1728 703 c7 -3 16 -2 19 1 4 3 -2 6 -13 5 -11 0 -14 -3 -6 -6z"/>
<path d="M2016 701 c-4 -6 -4 -26 -1 -45 5 -24 3 -36 -8 -42 -22 -14 -30 -89
-12 -108 17 -17 20 -52 5 -61 -17 -11 -11 -25 15 -37 14 -6 25 -17 25 -23 0
-16 33 -45 51 -44 8 0 4 4 -9 9 -12 5 -26 20 -32 34 -5 13 -18 27 -29 31 -23
7 -27 20 -11 30 15 9 12 51 -5 65 -19 16 -11 79 12 97 11 9 13 22 8 52 -7 40
-6 41 24 41 30 0 81 -18 81 -29 0 -3 -9 -19 -19 -35 -22 -34 -18 -50 10 -41
13 4 19 2 19 -9 0 -8 9 -21 21 -30 14 -9 19 -21 15 -33 -4 -13 2 -26 19 -41
26 -23 31 -41 16 -57 -5 -6 -19 -28 -31 -50 -15 -27 -17 -35 -6 -26 9 7 16 18
16 23 0 5 9 21 20 35 27 34 25 59 -5 79 -19 13 -23 21 -18 45 4 23 2 29 -11
29 -9 0 -21 12 -26 26 -8 20 -14 24 -32 18 -22 -7 -22 -6 -5 17 28 39 31 50
14 66 -19 19 -102 30 -111 14z"/>
<path d="M1755 690 c-3 -5 -1 -10 4 -10 6 0 11 5 11 10 0 6 -2 10 -4 10 -3 0
-8 -4 -11 -10z"/>
<path d="M1599 677 c4 -4 39 -7 77 -5 l69 3 -77 5 c-42 3 -73 1 -69 -3z"/>
<path d="M562 667 c-15 -17 1 -42 23 -33 18 6 17 37 -1 43 -6 2 -16 -2 -22
-10z"/>
<path d="M902 610 c0 -14 2 -19 5 -12 2 6 2 18 0 25 -3 6 -5 1 -5 -13z"/>
<path d="M912 560 c0 -14 4 -36 8 -50 6 -20 8 -21 8 -5 0 11 -4 34 -8 50 -7
27 -8 27 -8 5z"/>
<path d="M2308 475 c2 -14 8 -25 12 -25 10 0 1 38 -10 45 -4 2 -5 -7 -2 -20z"/>
<path d="M930 474 c0 -17 38 -47 52 -41 9 4 7 6 -4 6 -9 1 -24 11 -32 23 -9
12 -16 18 -16 12z"/>
<path d="M2271 471 c-8 -6 -9 -11 -3 -15 6 -3 14 -1 17 5 9 14 2 20 -14 10z"/>
<path d="M2344 468 c-5 -7 -3 -8 6 -3 8 5 19 1 28 -11 14 -18 14 -18 8 -1 -3
10 -6 21 -6 23 0 9 -29 3 -36 -8z"/>
<path d="M1103 423 c59 -2 154 -2 210 0 56 1 8 3 -108 3 -115 0 -161 -2 -102
-3z"/>
<path d="M2369 403 c-22 -46 -22 -50 1 -15 13 18 20 35 18 37 -3 3 -11 -7 -19
-22z"/>
<path d="M1029 393 c-13 -16 -12 -17 3 -4 26 20 51 6 46 -24 -3 -13 -1 -22 3
-19 13 8 11 38 -3 52 -17 17 -33 15 -49 -5z"/>
<path d="M1341 390 l24 -20 -24 -20 c-13 -11 -19 -20 -13 -20 13 0 42 28 42
40 0 12 -29 40 -42 40 -6 0 0 -9 13 -20z"/>
<path d="M2308 403 c7 -3 16 -2 19 1 4 3 -2 6 -13 5 -11 0 -14 -3 -6 -6z"/>
<path d="M1297 393 c-9 -9 -9 -41 1 -46 4 -3 7 8 7 24 0 16 0 29 -1 29 0 0 -4
-3 -7 -7z"/>
<path d="M2271 363 c-9 -16 -12 -16 -21 -3 -5 8 -10 10 -10 4 0 -6 6 -17 13
-23 11 -8 16 -5 25 14 13 29 8 34 -7 8z"/>
<path d="M1032 344 c10 -10 20 -16 22 -13 3 3 -5 11 -17 18 -21 13 -21 12 -5
-5z"/>
</g>
</svg>
