<?xml version="1.0" standalone="no"?>
<!DOCTYPE svg PUBLIC "-//W3C//DTD SVG 20010904//EN"
 "http://www.w3.org/TR/2001/REC-SVG-20010904/DTD/svg10.dtd">
<svg version="1.0" xmlns="http://www.w3.org/2000/svg"
 width="540.000000pt" height="444.000000pt" viewBox="0 0 540.000000 444.000000"
 preserveAspectRatio="xMidYMid meet">

<g transform="translate(0.000000,444.000000) scale(0.100000,-0.100000)"
fill="#000000" stroke="none">
<path d="M3209 4022 c-9 -4 -118 -106 -242 -228 -226 -221 -250 -252 -231
-294 5 -11 80 -91 168 -180 138 -139 163 -160 190 -160 17 0 41 7 53 15 19 13
33 10 157 -30 148 -49 189 -54 218 -28 20 18 198 548 198 590 0 37 -150 245
-192 266 -24 12 -285 61 -301 56 -1 0 -9 -3 -18 -7z m-63 -221 c-11 -17 -31
-13 -51 9 -15 16 -16 22 -5 35 12 15 16 14 38 -8 13 -14 21 -30 18 -36z m487
-29 c20 -28 37 -60 37 -69 0 -33 -172 -538 -186 -550 -12 -9 -42 -2 -137 29
-67 22 -126 44 -130 48 -4 4 81 93 189 198 l197 192 -7 80 c-3 44 -9 94 -13
112 -7 38 -1 34 50 -40z m-226 42 c6 -17 -6 -45 -23 -51 -21 -7 -47 23 -40 45
9 27 53 30 63 6z m-92 -404 c-110 -110 -207 -200 -215 -200 -8 0 -78 63 -154
139 -127 127 -137 140 -115 145 48 10 156 28 244 42 195 32 273 44 345 58 41
8 79 14 85 15 5 1 -80 -89 -190 -199z"/>
<path d="M1650 3898 c-53 -27 -90 -78 -90 -124 l0 -34 -80 0 c-102 0 -106 -5
-115 -160 -8 -140 -10 -150 -39 -150 -12 0 -27 -5 -33 -11 -8 -8 -17 -8 -31 0
-31 17 -83 13 -118 -8 -28 -17 -64 -73 -64 -100 0 -7 -21 -11 -54 -11 -34 0
-58 -5 -65 -14 -8 -9 -20 -135 -34 -336 l-21 -322 21 -18 c22 -18 79 -26 368
-54 126 -12 130 -12 194 12 96 34 103 43 99 124 l-3 68 35 0 c19 0 115 -9 213
-19 l179 -18 89 31 c50 18 100 42 112 54 26 27 27 10 -13 497 -28 342 -32 371
-51 388 -12 9 -32 17 -45 17 -21 0 -24 5 -24 38 -1 51 -31 115 -70 142 -41 29
-114 37 -160 18 -29 -12 -40 -13 -65 -2 -44 19 -85 17 -135 -8z m114 -34 c13
-5 14 -10 2 -32 -7 -15 -16 -44 -20 -65 l-7 -38 -67 3 -67 3 3 30 c7 73 89
125 156 99z m238 -35 c21 -25 28 -44 28 -76 l0 -43 -39 0 c-21 0 -53 3 -70 6
-27 6 -31 10 -31 41 0 19 -7 47 -15 64 -22 42 -11 52 48 46 43 -4 56 -10 79
-38z m-162 -77 c0 -29 -3 -33 -22 -30 -27 4 -34 32 -18 74 11 28 12 28 26 10
8 -11 14 -35 14 -54z m-282 -115 c3 -43 5 -48 25 -45 18 2 23 11 25 46 l3 42
53 0 c29 0 81 -3 115 -6 57 -6 61 -8 61 -33 0 -35 15 -55 34 -48 11 4 16 19
16 42 l0 37 68 -7 c37 -4 68 -9 70 -10 7 -6 -41 -861 -49 -869 -4 -5 -89 -1
-200 10 l-193 19 -7 34 c-4 19 -13 113 -19 210 -7 97 -17 184 -22 193 -5 10
-20 21 -33 24 -18 4 -25 13 -25 31 0 32 -24 77 -53 100 -24 18 -24 21 -16 118
4 55 8 115 9 133 l0 33 68 -3 67 -3 3 -48z m566 -24 c3 -27 13 -138 22 -248 9
-110 22 -270 29 -355 8 -102 9 -159 3 -167 -10 -13 -110 -53 -131 -53 -10 0
-10 46 0 218 6 119 14 267 17 327 18 324 18 325 36 325 14 0 19 -11 24 -47z
m-889 -250 c-4 -10 -10 -31 -13 -46 -4 -26 -7 -28 -46 -25 -49 4 -56 22 -26
61 16 20 30 27 57 27 30 0 34 -3 28 -17z m115 -15 l-1 -33 -14 25 c-18 32 -18
40 0 40 10 0 15 -10 15 -32z m80 -45 c0 -14 -6 -23 -15 -23 -11 0 -15 11 -15
43 1 39 2 41 15 23 8 -11 15 -30 15 -43z m-140 12 c0 -14 -4 -25 -10 -25 -11
0 -14 33 -3 43 11 11 13 8 13 -18z m-208 -97 c2 -25 8 -34 26 -36 19 -3 22 1
22 27 0 37 7 42 53 34 30 -4 36 -10 39 -32 4 -37 42 -36 46 2 2 15 7 27 12 27
5 0 10 -12 12 -27 4 -36 41 -40 46 -5 3 19 9 22 49 22 l46 0 -6 -67 c-4 -38
-12 -179 -18 -315 l-12 -248 -26 0 c-48 0 -404 39 -409 45 -6 5 24 511 34 573
5 30 8 32 44 32 36 0 39 -2 42 -32z m438 -280 c12 -153 20 -284 17 -292 -6
-15 -75 -42 -84 -32 -3 3 -1 108 6 233 15 300 22 386 31 376 4 -4 18 -133 30
-285z"/>
<path d="M2654 3667 c-9 -26 5 -37 46 -37 67 0 65 36 -3 47 -28 4 -38 2 -43
-10z"/>
<path d="M2447 3663 c-12 -3 -17 -12 -15 -26 3 -19 8 -22 43 -19 43 4 60 19
43 39 -10 13 -36 15 -71 6z"/>
<path d="M2238 3613 c-20 -5 -29 -25 -18 -42 9 -16 63 -6 80 14 23 28 -9 42
-62 28z"/>
<path d="M3610 3183 c1 -26 37 -65 56 -61 26 5 27 22 4 51 -24 31 -60 36 -60
10z"/>
<path d="M3734 3006 c-8 -20 23 -76 42 -76 23 0 27 25 9 59 -16 33 -42 41 -51
17z"/>
<path d="M3825 2810 c-9 -15 4 -67 21 -81 25 -20 38 3 27 48 -9 37 -34 55 -48
33z"/>
<path d="M2290 2553 c-21 -20 -46 -71 -90 -183 -54 -139 -60 -162 -60 -228 0
-84 22 -138 69 -171 l30 -21 -1 -435 c0 -407 2 -437 19 -468 39 -66 43 -67
491 -67 l402 0 0 -125 0 -125 -75 0 c-105 0 -155 -30 -190 -113 -12 -28 -21
-37 -40 -37 -29 0 -41 -16 -25 -35 11 -13 86 -15 504 -15 350 0 495 3 503 11
17 17 4 39 -23 39 -18 0 -28 9 -39 37 -35 83 -85 113 -190 113 -64 0 -75 2
-76 18 -4 73 -4 209 -1 220 3 9 93 12 404 12 431 0 426 -1 478 55 l25 27 5
427 5 428 33 28 c51 42 62 73 62 169 0 78 -4 94 -56 228 -31 78 -63 158 -71
176 -31 65 29 62 -1067 62 l-996 0 -30 -27z m208 -40 c-28 -104 -62 -223 -70
-245 l-10 -28 -104 0 c-57 0 -104 2 -104 5 0 21 104 263 117 273 10 7 48 12
96 12 71 0 79 -2 75 -17z m278 -20 c-4 -21 -17 -92 -29 -158 l-23 -120 -117
-3 c-94 -2 -117 0 -117 11 0 15 79 287 87 300 2 4 49 7 105 7 l101 0 -7 -37z
m260 0 c-6 -37 -26 -246 -26 -270 0 -8 -32 -11 -112 -10 l-113 2 2 40 c1 35
37 227 48 263 3 8 33 12 106 12 l101 0 -6 -37z m264 -123 l0 -160 -121 0 -121
0 7 68 c4 37 11 103 16 147 5 44 9 86 9 93 0 9 28 12 105 12 l105 0 0 -160z
m267 40 c6 -63 12 -134 12 -156 l1 -42 -112 2 -113 1 -3 158 -3 158 103 -3
103 -3 12 -115z m275 -20 c40 -199 49 -180 -87 -180 -134 0 -118 -19 -134 161
-17 179 -28 160 92 157 l102 -3 27 -135z m271 -12 c25 -84 43 -155 41 -158 -3
-3 -52 -6 -109 -8 -91 -2 -105 0 -114 15 -7 15 -61 274 -61 296 0 4 44 7 98 7
l99 0 46 -152z m209 140 c14 -11 128 -281 128 -303 0 -3 -53 -4 -117 -3 l-117
3 -34 110 c-18 61 -39 131 -47 158 l-14 47 93 0 c58 0 98 -5 108 -12z m-1912
-392 c0 -55 -4 -69 -26 -95 -47 -57 -137 -50 -175 13 -13 21 -19 50 -19 89 l0
57 110 0 110 0 0 -64z m310 -16 c0 -92 -49 -150 -127 -150 -38 0 -50 5 -79 34
-32 32 -34 38 -34 100 l0 66 120 0 120 0 0 -50z m290 0 c0 -121 -82 -189 -174
-145 -48 23 -66 60 -66 135 l0 60 120 0 120 0 0 -50z m286 -13 c-5 -97 -42
-137 -124 -137 -71 0 -112 52 -112 145 l0 55 120 0 120 0 -4 -63z m292 -7 c-3
-56 -8 -74 -27 -94 -54 -57 -135 -54 -186 5 -21 26 -25 41 -25 95 l0 64 121 0
121 0 -4 -70z m292 15 c0 -94 -41 -145 -115 -145 -82 0 -125 51 -125 148 l0
52 120 0 120 0 0 -55z m290 -11 c0 -61 -2 -68 -33 -99 -42 -42 -77 -52 -125
-33 -54 20 -82 68 -82 139 l0 59 120 0 120 0 0 -66z m290 0 c0 -62 -2 -68 -34
-100 -29 -29 -41 -34 -81 -34 -40 0 -52 5 -81 34 -32 32 -34 38 -34 100 l0 66
115 0 115 0 0 -66z m-1980 -144 c0 -11 55 -37 89 -44 48 -9 104 9 139 46 l31
31 35 -31 c71 -62 161 -63 226 -2 l32 30 34 -30 c68 -59 160 -60 227 -1 l32
29 32 -29 c67 -58 160 -58 226 0 l32 29 32 -29 c67 -58 160 -58 226 0 l32 29
32 -29 c68 -59 159 -58 228 3 20 17 39 27 43 24 12 -12 18 -777 7 -793 -14
-19 -1774 -20 -1787 -1 -9 16 -11 812 -1 822 6 6 52 -41 53 -54z m-110 -374
c0 -384 4 -427 40 -446 12 -6 350 -10 916 -10 l898 0 23 22 23 21 0 374 c0
310 2 373 14 373 7 0 28 -3 45 -6 l31 -6 0 -407 c-1 -428 0 -425 -47 -449 -16
-9 -275 -12 -998 -12 l-976 0 -24 25 c-14 13 -25 32 -25 42 -1 10 -1 203 -1
428 l0 410 28 6 c15 4 34 7 41 8 9 1 12 -80 12 -373z m1078 -718 l-3 -123
-120 0 -120 0 -3 123 -3 122 126 0 126 0 -3 -122z m238 -212 c68 -68 80 -66
-361 -66 -441 0 -429 -2 -361 66 l34 34 327 0 327 0 34 -34z"/>
<path d="M3045 1830 c-14 -23 17 -40 71 -40 l53 0 5 -147 c2 -82 5 -157 6
-168 1 -11 -1 -32 -5 -47 -5 -20 -2 -36 11 -55 10 -16 19 -46 20 -67 1 -95
132 -104 150 -11 6 32 9 35 40 35 29 0 34 -3 34 -24 0 -83 121 -106 148 -28
13 38 -8 89 -40 97 -13 3 -86 6 -162 8 -117 2 -141 5 -149 19 -8 12 -7 21 2
32 11 13 39 16 167 16 147 0 154 1 181 24 27 23 28 29 31 125 3 81 1 107 -12
126 l-16 25 -180 0 -180 0 0 26 c0 54 -14 64 -95 64 -40 0 -77 -5 -80 -10z
m220 -140 c11 -5 14 -9 8 -9 -7 -1 -13 -7 -13 -15 0 -9 -7 -12 -20 -9 -11 3
-20 14 -20 24 0 20 13 23 45 9z m118 3 c-13 -2 -35 -2 -50 0 -16 2 -5 4 22 4
28 0 40 -2 28 -4z m174 -74 c3 -123 9 -119 -166 -119 -107 0 -151 4 -159 13
-14 17 -15 140 -1 132 5 -4 9 -20 7 -36 -3 -33 -1 -35 32 -26 21 6 23 9 10 18
-12 8 -11 9 7 4 24 -7 87 27 75 40 -4 5 -2 6 3 2 6 -3 25 1 44 9 28 12 31 16
21 29 -11 13 -4 15 57 15 l69 0 1 -81z m-254 -301 c7 -21 -4 -38 -23 -38 -10
0 -20 6 -23 13 -7 20 4 37 23 37 10 0 20 -6 23 -12z m225 -11 c4 -20 -25 -34
-40 -19 -15 15 -1 44 19 40 10 -2 19 -11 21 -21z"/>
<path d="M1366 2464 c-16 -42 2 -88 30 -77 9 3 14 21 14 49 0 37 -3 44 -19 44
-10 0 -22 -7 -25 -16z"/>
<path d="M1375 2251 c-3 -6 -3 -26 1 -46 4 -26 11 -35 25 -35 25 0 33 22 22
57 -10 29 -36 42 -48 24z"/>
<path d="M1424 2035 c-3 -8 0 -30 6 -50 16 -47 46 -45 43 3 -2 49 -36 82 -49
47z"/>
<path d="M1504 1829 c-10 -16 28 -80 46 -77 21 5 24 35 6 63 -17 26 -40 32
-52 14z"/>
<path d="M1633 1653 c-21 -7 -15 -38 11 -63 26 -23 56 -22 56 3 0 19 -52 65
-67 60z"/>
<path d="M1770 1472 c0 -25 45 -66 64 -59 23 9 20 30 -7 55 -28 27 -57 29 -57
4z"/>
<path d="M1951 1351 c-20 -13 -7 -37 29 -56 54 -28 71 9 21 44 -33 24 -31 24
-50 12z"/>
</g>
</svg>
