<svg enable-background="new 0 0 128 128" viewBox="0 0 128 128" xmlns="http://www.w3.org/2000/svg" xmlns:xlink="http://www.w3.org/1999/xlink"><radialGradient id="a" cx="74.388" cy="36.324" gradientUnits="userSpaceOnUse" r="22.78"><stop offset=".2173" stop-color="#ffd54f"/><stop offset=".86" stop-color="#ffc107"/></radialGradient><radialGradient id="b" cx="50.878" cy="6.6955" gradientUnits="userSpaceOnUse" r="106.44"><stop offset=".2636" stop-color="#e3f2fd"/><stop offset=".9167" stop-color="#90caf9"/></radialGradient><path d="m79.81 13.51 7.52-8.7c.69-.8 2-.45 2.2.59l2.17 11.3c.15.76.93 1.21 1.66.96l10.86-3.77c1-.35 1.96.61 1.61 1.61l-3.77 10.86c-.25.73.2 1.52.96 1.66l11.29 2.17c1.04.2 1.39 1.51.59 2.2l-8.7 7.52c-.58.51-.58 1.41 0 1.92l8.7 7.52c.8.69.45 2-.59 2.2l-11.29 2.17c-.76.15-1.21.93-.96 1.66l3.77 10.86c.35 1-.61 1.96-1.61 1.61l-10.86-3.77c-.73-.25-1.52.2-1.66.96l-2.17 11.29c-.2 1.04-1.51 1.39-2.2.59l-7.52-8.7c-.51-.58-1.41-.58-1.92 0l-7.52 8.7c-.69.8-2 .45-2.2-.59l-2.17-11.28c-.15-.76-.93-1.21-1.66-.96l-10.86 3.77c-1 .35-1.96-.61-1.61-1.61l3.77-10.86c.25-.73-.2-1.52-.96-1.66l-11.29-2.17c-1.04-.2-1.39-1.51-.59-2.2l8.7-7.52c.58-.51.58-1.41 0-1.92l-8.7-7.52c-.8-.69-.45-2 .59-2.2l11.29-2.17c.76-.15 1.21-.93.96-1.66l-3.78-10.87c-.35-1 .61-1.96 1.61-1.61l10.86 3.77c.73.25 1.52-.2 1.66-.96l2.17-11.29c.2-1.04 1.51-1.39 2.2-.59l7.52 8.7c.52.58 1.43.58 1.93-.01z" fill="#f9a825"/><path d="m87.27 9.48 1.49 7.78c.38 2.01 2.15 3.47 4.19 3.47.48 0 .95-.08 1.4-.24l7.49-2.6-2.6 7.49c-.41 1.17-.28 2.46.34 3.53s1.67 1.82 2.89 2.06l7.78 1.49-5.99 5.18c-.94.81-1.48 1.99-1.48 3.23s.54 2.42 1.48 3.23l5.99 5.18-7.78 1.49c-1.22.23-2.27.98-2.89 2.06-.62 1.07-.74 2.36-.34 3.53l2.6 7.49-7.49-2.6c-.45-.16-.92-.24-1.4-.24-2.04 0-3.81 1.46-4.19 3.46l-1.49 7.78-5.18-5.99c-.81-.94-1.99-1.48-3.23-1.48s-2.42.54-3.23 1.48l-5.18 5.99-1.49-7.78c-.39-2.01-2.15-3.46-4.19-3.46-.48 0-.95.08-1.4.24l-7.49 2.6 2.6-7.49c.41-1.17.28-2.46-.34-3.53s-1.67-1.82-2.89-2.06l-7.78-1.49 5.99-5.18c.94-.81 1.48-1.99 1.48-3.23s-.54-2.42-1.48-3.23l-5.99-5.18 7.78-1.49c1.22-.23 2.27-.98 2.89-2.06.62-1.07.74-2.36.34-3.53l-2.6-7.49 7.49 2.6c.45.16.92.24 1.4.24 2.04 0 3.81-1.46 4.19-3.46l1.49-7.78 5.18 5.99c.81.94 1.99 1.48 3.23 1.48s2.42-.54 3.23-1.48zm1.02-5.1c-.34 0-.69.14-.95.44l-7.52 8.7c-.25.29-.61.44-.96.44s-.71-.15-.96-.44l-7.52-8.7c-.26-.3-.61-.44-.95-.44-.57 0-1.13.38-1.25 1.03l-2.18 11.29c-.12.62-.66 1.03-1.24 1.03-.14 0-.28-.02-.42-.07l-10.86-3.77c-.14-.05-.28-.07-.42-.07-.83 0-1.49.83-1.19 1.69l3.77 10.86c.25.73-.2 1.52-.96 1.66l-11.29 2.17c-1.04.2-1.39 1.51-.59 2.2l8.7 7.52c.58.51.58 1.41 0 1.92l-8.7 7.52c-.8.69-.45 2 .59 2.2l11.29 2.17c.76.15 1.21.93.96 1.66l-3.77 10.86c-.3.86.37 1.69 1.19 1.69.14 0 .28-.02.42-.07l10.86-3.77c.14-.05.28-.07.42-.07.59 0 1.13.41 1.24 1.03l2.17 11.29c.12.65.68 1.03 1.25 1.03.34 0 .69-.14.95-.44l7.52-8.7c.25-.29.61-.44.96-.44s.71.15.96.44l7.52 8.7c.26.3.61.44.95.44.57 0 1.13-.38 1.25-1.03l2.17-11.29c.12-.62.66-1.03 1.24-1.03.14 0 .28.02.42.07l10.86 3.77c.14.05.28.07.42.07.83 0 1.49-.83 1.19-1.69l-3.77-10.86c-.25-.73.2-1.52.96-1.66l11.29-2.17c1.04-.2 1.39-1.51.59-2.2l-8.7-7.52c-.58-.51-.58-1.41 0-1.92l8.7-7.52c.8-.69.45-2-.59-2.2l-11.29-2.17c-.76-.15-1.21-.93-.96-1.66l3.77-10.86c.3-.86-.37-1.69-1.19-1.69-.14 0-.28.02-.42.07l-10.86 3.77c-.14.05-.28.07-.42.07-.59 0-1.13-.41-1.24-1.03l-2.16-11.29c-.13-.65-.68-1.03-1.25-1.03z" fill="#424242" opacity=".2"/><circle cx="78.06" cy="41.82" fill="url(#a)" r="23.23"/><path d="m101.6 50.97c-.6 0-1.19.04-1.77.11.46-1.55.71-3.18.71-4.88 0-9.46-7.67-17.12-17.12-17.12-4.03 0-7.72 1.4-10.64 3.72-3.94-7.45-11.76-12.54-20.78-12.54-12.97 0-23.48 10.51-23.48 23.48 0 .47.02.93.04 1.39-9.77 1.2-17.34 9.52-17.34 19.62 0 10.8 8.67 19.58 19.43 19.76 3.61 6.26 10.78 10.55 19.08 10.61 8.02.06 15.05-3.85 18.86-9.72 3.07 3.35 7.46 5.47 12.36 5.47 7.02 0 13.02-4.32 15.52-10.44 1.6.58 3.33.91 5.13.91 8.38 0 15.18-6.8 15.18-15.18 0-8.39-6.8-15.19-15.18-15.19z" fill="url(#b)"/><path d="m52 23.26c7.62 0 14.56 4.19 18.12 10.95.42.79 1.16 1.35 2.04 1.54.2.04.41.06.62.06.67 0 1.33-.23 1.87-.65 2.53-2.01 5.56-3.07 8.77-3.07 7.79 0 14.12 6.34 14.12 14.12 0 1.35-.2 2.7-.59 4.02-.29.97-.07 2.01.58 2.78.57.68 1.42 1.07 2.3 1.07.12 0 .23-.01.35-.02.53-.06 1-.09 1.43-.09 6.72 0 12.18 5.46 12.18 12.18s-5.46 12.18-12.18 12.18c-1.38 0-2.77-.25-4.11-.73-.33-.12-.68-.18-1.01-.18-1.19 0-2.3.71-2.78 1.87-2.13 5.21-7.13 8.57-12.75 8.57-3.84 0-7.55-1.64-10.16-4.5-.57-.63-1.38-.98-2.22-.98-.08 0-.16 0-.25.01-.93.08-1.77.52-2.27 1.3-3.34 5.16-9.53 8.3-16.14 8.3h-.16c-6.97 0-13.29-3.49-16.5-9.06-.53-.91-1.49-1.46-2.55-1.47-9.09-.16-16.48-7.66-16.48-16.74 0-8.45 6.32-15.59 14.71-16.62 1.57-.19 2.72-1.57 2.63-3.15-.03-.46-.04-.86-.04-1.22-.01-11.29 9.18-20.47 20.47-20.47m0-3c-12.97 0-23.48 10.51-23.48 23.48 0 .47.02.94.05 1.4-9.77 1.2-17.34 9.51-17.34 19.61 0 10.8 8.67 19.51 19.43 19.69 3.59 6.26 10.77 10.56 19.07 10.56h.18c7.95 0 14.89-3.85 18.66-9.67 3.07 3.36 7.47 5.51 12.37 5.51 7.02 0 13.02-4.3 15.52-10.42 1.6.58 3.33.91 5.13.91 8.38 0 15.18-6.79 15.18-15.18 0-8.38-6.8-15.18-15.18-15.18-.6 0-1.19.05-1.77.11.46-1.55.71-3.18.71-4.88 0-9.46-7.67-17.12-17.12-17.12-4.03 0-7.72 1.4-10.64 3.72-3.93-7.45-11.75-12.54-20.77-12.54z" fill="#424242" opacity=".2"/><path d="m88.67 119.66c-1.57 3.43-5.63 4.94-9.07 3.36-3.43-1.57-4.94-5.63-3.36-9.07s11.83-10.25 11.83-10.25 2.17 12.53.6 15.96z" fill="#64b5f6"/><path d="m88.67 119.66c-1.57 3.43-5.63 4.94-9.07 3.36-3.43-1.57-4.94-5.63-3.36-9.07s11.83-10.25 11.83-10.25 2.17 12.53.6 15.96z" fill="#90caf9"/><path d="m25.12 99.73c-1.57 3.43-5.63 4.94-9.07 3.36s-4.94-5.63-3.36-9.07 11.83-10.25 11.83-10.25 2.18 12.53.6 15.96z" fill="#64b5f6"/><path d="m23.03 87.25c.67 4.99.94 10.19.27 11.65-.79 1.71-2.51 2.82-4.4 2.82-.7 0-1.37-.15-2.01-.44-2.42-1.11-3.49-3.99-2.38-6.41.74-1.62 4.83-4.97 8.52-7.62m1.49-3.47s-10.25 6.81-11.83 10.25c-1.57 3.43-.07 7.49 3.36 9.07.92.42 1.89.62 2.85.62 2.59 0 5.07-1.48 6.22-3.99 1.58-3.43-.6-15.95-.6-15.95z" fill="#424242" opacity=".2"/><path d="m37.58 119.66c-1.57 3.43-5.63 4.94-9.07 3.36s-4.94-5.63-3.36-9.07 11.83-10.25 11.83-10.25 2.18 12.53.6 15.96z" fill="#90caf9"/><path d="m35.5 107.18c.9 6.45.74 10.62.27 11.65-.79 1.71-2.51 2.82-4.4 2.82-.7 0-1.37-.15-2.01-.44-1.17-.54-2.07-1.5-2.52-2.71s-.4-2.53.14-3.7c.73-1.62 4.83-4.97 8.52-7.62m1.48-3.46s-10.25 6.81-11.83 10.25c-1.57 3.43-.07 7.49 3.36 9.07.92.42 1.89.62 2.85.62 2.59 0 5.07-1.48 6.22-3.99 1.58-3.44-.6-15.95-.6-15.95z" fill="#424242" opacity=".2"/><path d="m63.75 109.7c-1.57 3.43-5.63 4.94-9.07 3.36-3.43-1.57-4.94-5.63-3.36-9.07 1.57-3.43 11.83-10.25 11.83-10.25s2.17 12.52.6 15.96z" fill="#64b5f6"/><path d="m61.67 97.21c.9 6.45.74 10.62.27 11.65-.79 1.71-2.51 2.82-4.4 2.82-.7 0-1.37-.15-2.01-.44-2.42-1.11-3.49-3.99-2.38-6.41.73-1.61 4.83-4.96 8.52-7.62m1.48-3.46s-10.25 6.81-11.83 10.25c-1.57 3.43-.07 7.49 3.36 9.07.92.42 1.89.62 2.85.62 2.59 0 5.07-1.48 6.22-3.99 1.57-3.44-.6-15.95-.6-15.95z" fill="#424242" opacity=".2"/><path d="m104.87 99.73c-1.57 3.43-5.63 4.94-9.07 3.36-3.43-1.57-4.94-5.63-3.36-9.07s11.83-10.25 11.83-10.25 2.17 12.53.6 15.96z" fill="#64b5f6"/><g fill="#424242"><path d="m102.77 87.25c.67 4.99.94 10.19.27 11.65-.79 1.71-2.51 2.82-4.4 2.82-.7 0-1.37-.15-2.01-.44-2.42-1.11-3.49-3.99-2.38-6.41.74-1.62 4.84-4.97 8.52-7.62m1.49-3.47s-10.25 6.81-11.83 10.25c-1.57 3.43-.07 7.49 3.36 9.07.92.42 1.89.62 2.85.62 2.59 0 5.07-1.48 6.22-3.99 1.58-3.43-.6-15.95-.6-15.95z" opacity=".2"/><g opacity=".2"><path d="m86.58 107.18c.67 4.99.94 10.19.27 11.65-.79 1.71-2.51 2.82-4.4 2.82-.7 0-1.37-.15-2.01-.44-2.42-1.11-3.49-3.99-2.38-6.41.74-1.61 4.83-4.96 8.52-7.62m1.49-3.46s-10.25 6.81-11.83 10.25c-1.57 3.43-.07 7.49 3.36 9.07.92.42 1.89.62 2.85.62 2.59 0 5.07-1.48 6.22-3.99 1.57-3.44-.6-15.95-.6-15.95z"/><path d="m86.58 107.18c.67 4.99.94 10.19.27 11.65-.79 1.71-2.51 2.82-4.4 2.82-.7 0-1.37-.15-2.01-.44-2.42-1.11-3.49-3.99-2.38-6.41.74-1.61 4.83-4.96 8.52-7.62m1.49-3.46s-10.25 6.81-11.83 10.25c-1.57 3.43-.07 7.49 3.36 9.07.92.42 1.89.62 2.85.62 2.59 0 5.07-1.48 6.22-3.99 1.57-3.44-.6-15.95-.6-15.95z"/></g></g></svg>